<svg width="1em" height="1em" role="presentation" id="GRADIENTS" xmlns="http://www.w3.org/2000/svg" xmlns:xlink="http://www.w3.org/1999/xlink" viewBox="0 0 48 48"><defs><style>.cls-1{fill:#f47f49;}.cls-2{fill:url(#New_Gradient_Swatch_2);}.cls-3{fill:url(#New_Gradient_Swatch_2-2);}</style><linearGradient id="New_Gradient_Swatch_2" x1="2.95" y1="20.13" x2="30.56" y2="39.47" gradientTransform="matrix(1, 0, 0, 1, 0, 0)" gradientUnits="userSpaceOnUse"><stop offset=".14" stop-color="#ff8045"/><stop offset=".16" stop-color="#f5905e"/><stop offset=".22" stop-color="#e4aa87"/><stop offset=".27" stop-color="#d7c0a9"/><stop offset=".33" stop-color="#ccd2c4"/><stop offset=".39" stop-color="#c4ded7"/><stop offset=".45" stop-color="#c0e5e2"/><stop offset=".51" stop-color="#bfe8e6"/><stop offset=".76" stop-color="#cdc4f5"/><stop offset="1" stop-color="#ffbd45"/></linearGradient><linearGradient id="New_Gradient_Swatch_2-2" x1="18.18" y1="6.6" x2="44.37" y2="24.94" xlink:href="#New_Gradient_Swatch_2"/></defs><g id="RX"><g><g><circle class="cls-1" cx="12.21" cy="22.86" r="1.33"/><circle class="cls-1" cx="17.47" cy="22.86" r="1.33"/><circle class="cls-1" cx="22.72" cy="22.86" r="1.33"/></g><path class="cls-2" d="M6.32,44.76c-.26,0-.52-.08-.74-.25-.52-.41-.61-1.16-.2-1.68l4.97-6.34c.92-1.18,2.31-1.85,3.8-1.85h10.83c1.35,0,2.44-1.1,2.44-2.45v-13.24c0-1.35-1.1-2.45-2.44-2.45H9.96c-1.35,0-2.44,1.1-2.44,2.45v19.57c0,.66-.53,1.19-1.19,1.19s-1.19-.53-1.19-1.19V18.94c0-2.67,2.17-4.84,4.83-4.84h15.02c2.66,0,4.83,2.17,4.83,4.84v13.24c0,2.67-2.17,4.84-4.83,4.84H14.15c-.75,0-1.45,.34-1.92,.94l-4.97,6.34c-.24,.3-.59,.46-.94,.46Z"/><path class="cls-3" d="M40.69,36.82c-.36,0-.71-.16-.94-.46l-4.97-6.34c-.47-.6-1.17-.94-1.92-.94-.66,0-1.19-.53-1.19-1.19s.53-1.19,1.19-1.19c1.49,0,2.88,.68,3.8,1.85l2.84,3.62V11c0-1.35-1.1-2.45-2.44-2.45h-15.02c-1.35,0-2.44,1.1-2.44,2.45,0,.66-.53,1.19-1.19,1.19s-1.19-.53-1.19-1.19c0-2.67,2.17-4.84,4.83-4.84h15.02c2.66,0,4.83,2.17,4.83,4.84v24.63c0,.51-.32,.96-.8,1.13-.13,.04-.26,.07-.39,.07Z"/></g></g></svg>