<svg width="1em" height="1em" role="presentation" id="GRADIENTS" xmlns="http://www.w3.org/2000/svg" xmlns:xlink="http://www.w3.org/1999/xlink" viewBox="0 0 48 48"><defs><style>.cls-1{fill:url(#New_Gradient_Swatch_2);}.cls-2{fill:url(#New_Gradient_Swatch_2-2);}</style><linearGradient id="New_Gradient_Swatch_2" x1="1.84" y1="19.37" x2="34.6" y2="42.31" gradientTransform="matrix(1, 0, 0, 1, 0, 0)" gradientUnits="userSpaceOnUse"><stop offset=".14" stop-color="#ff8045"/><stop offset=".16" stop-color="#f5905e"/><stop offset=".22" stop-color="#e4aa87"/><stop offset=".27" stop-color="#d7c0a9"/><stop offset=".33" stop-color="#ccd2c4"/><stop offset=".39" stop-color="#c4ded7"/><stop offset=".45" stop-color="#c0e5e2"/><stop offset=".51" stop-color="#bfe8e6"/><stop offset=".76" stop-color="#cdc4f5"/><stop offset="1" stop-color="#ffbd45"/></linearGradient><linearGradient id="New_Gradient_Swatch_2-2" x1="10.87" y1="6.56" x2="43.44" y2="29.37" xlink:href="#New_Gradient_Swatch_2"/></defs><g id="MX"><g><path class="cls-1" d="M21.81,41.19c-9.76,0-17.4-3.76-17.4-8.57v-5.15c0-.61,.5-1.11,1.11-1.11s1.11,.5,1.11,1.11v5.15c0,3.54,7.2,6.07,14.06,6.32V21.68l-13.93,.88c.43,1.32,1.95,2.6,4.31,3.62,1.97,.85,4.4,1.45,7.04,1.74,.61,.07,1.05,.62,.99,1.23-.07,.61-.62,1.05-1.23,.99-2.86-.31-5.51-.97-7.68-1.91-3.73-1.61-5.79-3.9-5.79-6.44v-.26c0-.59,.46-1.07,1.04-1.11l16.29-1.03c.31-.02,.61,.09,.83,.3s.35,.5,.35,.81v19.58c0,.61-.5,1.11-1.11,1.11Z"/><path class="cls-2" d="M26.8,34.8c-.62,0-1.11-.5-1.11-1.11V16.58l-14.95,.94c-.52,.03-.99-.3-1.14-.79-1-3.35,1.64-6.47,7.05-8.34,4.25-1.47,9.22-1.92,14.37-1.32,5.18,.61,8.85,2.01,11.23,4.27,1.69,1.61,1.93,3.26,1.84,4.37-.15,1.79-1.31,3.53-3.18,4.8-2.68,1.81-6.22,2.92-10.52,3.3-.6,.05-1.15-.4-1.21-1.01-.05-.61,.4-1.15,1.01-1.21,3.92-.35,7.1-1.33,9.47-2.93,1.31-.88,2.12-2.03,2.21-3.14,.08-.9-.31-1.77-1.16-2.57-2.02-1.92-5.27-3.12-9.95-3.67-4.82-.57-9.44-.15-13.38,1.21-1.4,.49-5.62,2.16-5.75,4.74l15.11-.95c.31-.02,.61,.09,.83,.3,.22,.21,.35,.5,.35,.81v17.16c6.87-.25,14.06-2.77,14.06-6.32v-4.91c0-.61,.5-1.11,1.11-1.11s1.11,.5,1.11,1.11v4.91c0,4.8-7.64,8.57-17.4,8.57Z"/></g></g></svg>