<svg width="1em" height="1em" role="presentation" id="GRADIENTS" xmlns="http://www.w3.org/2000/svg" xmlns:xlink="http://www.w3.org/1999/xlink" viewBox="0 0 48 48"><defs><style>.cls-1{fill:url(#New_Gradient_Swatch_2);}.cls-2{fill:url(#New_Gradient_Swatch_2-2);}.cls-3{fill:url(#New_Gradient_Swatch_2-4);}.cls-4{fill:url(#New_Gradient_Swatch_2-3);}</style><linearGradient id="New_Gradient_Swatch_2" x1="3.4" y1="12.01" x2="43.41" y2="40.03" gradientTransform="matrix(1, 0, 0, 1, 0, 0)" gradientUnits="userSpaceOnUse"><stop offset=".14" stop-color="#ff8045"/><stop offset=".16" stop-color="#f5905e"/><stop offset=".22" stop-color="#e4aa87"/><stop offset=".27" stop-color="#d7c0a9"/><stop offset=".33" stop-color="#ccd2c4"/><stop offset=".39" stop-color="#c4ded7"/><stop offset=".45" stop-color="#c0e5e2"/><stop offset=".51" stop-color="#bfe8e6"/><stop offset=".76" stop-color="#cdc4f5"/><stop offset="1" stop-color="#ffbd45"/></linearGradient><linearGradient id="New_Gradient_Swatch_2-2" x1="7.58" y1="4.08" x2="54.4" y2="36.87" xlink:href="#New_Gradient_Swatch_2"/><linearGradient id="New_Gradient_Swatch_2-3" x1="3.85" y1="6.88" x2="50.67" y2="39.67" xlink:href="#New_Gradient_Swatch_2"/><linearGradient id="New_Gradient_Swatch_2-4" x1=".13" y1="9.68" x2="46.95" y2="42.46" xlink:href="#New_Gradient_Swatch_2"/></defs><g id="RX"><g><path class="cls-1" d="M38.37,23.27c1.11-1.82,1.3-4.12,.44-6.22-1.04-2.53-3.33-4.1-5.97-4.1,0,0-.01,0-.02,0-2.64,0-4.93,1.57-5.97,4.1-.86,2.1-.67,4.4,.44,6.22-3.35,2.02-5.45,5.73-5.45,9.83v5.15c0,.66,.53,1.19,1.19,1.19s1.19-.53,1.19-1.19v-5.15c0-3.67,2.1-6.94,5.36-8.33l1.64-.7-1.27-1.25c-1.25-1.24-1.6-3.15-.9-4.86,.67-1.64,2.08-2.62,3.76-2.62h0c1.68,0,3.09,.98,3.76,2.62,.71,1.72,.35,3.63-.9,4.86l-1.26,1.25,1.64,.7c3.25,1.39,5.36,4.66,5.36,8.33v4.81c0,1.65-1.31,3-2.93,3H12.31c-1.61,0-2.93-1.35-2.93-3V10.09c0-1.65,1.31-3,2.93-3H28.71c1.61,0,2.93,1.35,2.93,3,0,.66,.53,1.19,1.19,1.19s1.19-.53,1.19-1.19c0-2.97-2.38-5.39-5.32-5.39H12.31c-2.93,0-5.32,2.42-5.32,5.39v27.83c0,2.97,2.38,5.39,5.32,5.39h26.19c2.93,0,5.32-2.42,5.32-5.39v-4.81c0-4.1-2.1-7.81-5.45-9.83Z"/><path class="cls-2" d="M23.36,10.22H12.74c-.66,0-1.19,.53-1.19,1.19s.53,1.19,1.19,1.19h10.62c.66,0,1.19-.53,1.19-1.19s-.53-1.19-1.19-1.19Z"/><path class="cls-4" d="M23.36,15.63H12.74c-.66,0-1.19,.53-1.19,1.19s.53,1.19,1.19,1.19h10.62c.66,0,1.19-.53,1.19-1.19s-.53-1.19-1.19-1.19Z"/><path class="cls-3" d="M23.36,21.03H12.74c-.66,0-1.19,.53-1.19,1.19s.53,1.19,1.19,1.19h10.62c.66,0,1.19-.53,1.19-1.19s-.53-1.19-1.19-1.19Z"/></g></g></svg>