<svg width="1em" height="1em" role="presentation" id="GRADIENTS" xmlns="http://www.w3.org/2000/svg" xmlns:xlink="http://www.w3.org/1999/xlink" viewBox="0 0 48 48"><defs><style>.cls-1{fill:url(#BRAND_Gradient_-35_-2);}.cls-2{fill:url(#BRAND_Gradient_-35_-3);}.cls-3{fill:url(#BRAND_Gradient_-35_);}</style><linearGradient id="BRAND_Gradient_-35_" x1="6.2" y1="11.43" x2="42.61" y2="36.93" gradientTransform="matrix(1, 0, 0, 1, 0, 0)" gradientUnits="userSpaceOnUse"><stop offset=".14" stop-color="#ff8045"/><stop offset=".16" stop-color="#f5905e"/><stop offset=".22" stop-color="#e4aa87"/><stop offset=".27" stop-color="#d7c0a9"/><stop offset=".33" stop-color="#ccd2c4"/><stop offset=".39" stop-color="#c4ded7"/><stop offset=".45" stop-color="#c0e5e2"/><stop offset=".51" stop-color="#bfe8e6"/><stop offset=".76" stop-color="#cdc4f5"/><stop offset="1" stop-color="#ffbd45"/></linearGradient><linearGradient id="BRAND_Gradient_-35_-2" x1="5.76" y1="11.95" x2="42.27" y2="37.52" xlink:href="#BRAND_Gradient_-35_"/><linearGradient id="BRAND_Gradient_-35_-3" x1="5.19" y1="12.76" x2="41.54" y2="38.21" xlink:href="#BRAND_Gradient_-35_"/></defs><g id="RX"><g><path class="cls-3" d="M43.14,16.55c-.66,0-1.19,.53-1.19,1.19v16.13c0,1.23-1,2.23-2.23,2.23H9.16c-1.23,0-2.23-1-2.23-2.23V16.19c0-1.23,1-2.23,2.23-2.23H43.14c.66,0,1.19-.53,1.19-1.19s-.53-1.19-1.19-1.19H9.16c-2.54,0-4.61,2.07-4.61,4.61v17.69c0,2.54,2.07,4.61,4.61,4.61h30.57c2.54,0,4.61-2.07,4.61-4.61V17.74c0-.66-.53-1.19-1.19-1.19Z"/><path class="cls-1" d="M15.31,25.03c0,5.04,4.1,9.13,9.13,9.13s9.14-4.1,9.14-9.13-4.1-9.13-9.14-9.13-9.13,4.1-9.13,9.13Zm15.88,0c0,3.72-3.03,6.75-6.75,6.75s-6.75-3.03-6.75-6.75,3.03-6.75,6.75-6.75,6.75,3.03,6.75,6.75Z"/><path class="cls-2" d="M21.31,20.81c-.36,.22-.57,.6-.57,1.02v6.39c0,.42,.22,.8,.57,1.02,.19,.12,.4,.17,.62,.17,.19,0,.38-.04,.55-.13l6.15-3.19c.4-.21,.64-.61,.64-1.06s-.25-.85-.64-1.06l-6.15-3.19c-.37-.19-.81-.18-1.17,.04Zm1.81,2.99l2.37,1.23-2.37,1.23v-2.46Z"/></g></g></svg>