<svg width="1em" height="1em" role="presentation" id="GRADIENTS" xmlns="http://www.w3.org/2000/svg" xmlns:xlink="http://www.w3.org/1999/xlink" viewBox="0 0 48 48"><defs><style>.cls-1{fill:url(#New_Gradient_Swatch_2);}</style><linearGradient id="New_Gradient_Swatch_2" x1="8.59" y1="11.87" x2="41.65" y2="35.01" gradientTransform="matrix(1, 0, 0, 1, 0, 0)" gradientUnits="userSpaceOnUse"><stop offset=".14" stop-color="#ff8045"/><stop offset=".16" stop-color="#f5905e"/><stop offset=".22" stop-color="#e4aa87"/><stop offset=".27" stop-color="#d7c0a9"/><stop offset=".33" stop-color="#ccd2c4"/><stop offset=".39" stop-color="#c4ded7"/><stop offset=".45" stop-color="#c0e5e2"/><stop offset=".51" stop-color="#bfe8e6"/><stop offset=".76" stop-color="#cdc4f5"/><stop offset="1" stop-color="#ffbd45"/></linearGradient></defs><g id="RX"><path class="cls-1" d="M45.31,22.61c0-3.37-2.49-6.16-5.73-6.66v-7.13c0-2.28-1.86-4.14-4.14-4.14s-4.14,1.86-4.14,4.14V30.91c0,.66,.53,1.19,1.19,1.19s1.19-.53,1.19-1.19V8.82c0-.97,.79-1.75,1.75-1.75s1.75,.79,1.75,1.75v27.58c0,.97-.79,1.75-1.75,1.75s-1.75-.79-1.75-1.75c0-.64-.25-1.24-.7-1.68-1.24-1.22-5.03-4.22-13.57-5.85-.39-.07-.79,.05-1.07,.33-.28,.28-.4,.68-.33,1.07l1.89,9.93c.05,.25-.06,.43-.13,.51-.07,.08-.22,.23-.48,.23h-3.26c-.3,0-.56-.21-.61-.51l-2.19-11.49c-.1-.51-.54-.9-1.05-.96-.02,0-.04,0-.07,0-.96-.06-1.84-.11-2.7-.14-.86-.03-1.53-.72-1.53-1.57v-7.29c0-.85,.67-1.54,1.53-1.57,10.74-.34,16.99-2.68,20.35-4.59,.57-.33,.77-1.05,.45-1.63-.33-.57-1.05-.77-1.63-.45-3.12,1.77-8.99,3.95-19.25,4.28-2.16,.07-3.84,1.81-3.84,3.96v7.29c0,2.15,1.69,3.89,3.84,3.96,.55,.02,1.12,.04,1.72,.08l2.01,10.58c.27,1.42,1.51,2.45,2.96,2.45h3.26c.9,0,1.74-.4,2.32-1.09,.57-.69,.81-1.6,.64-2.48l-1.55-8.17c6.87,1.59,9.83,4.07,10.6,4.82,0,2.28,1.86,4.14,4.14,4.14s4.14-1.86,4.14-4.14v-7.13c3.24-.5,5.73-3.29,5.73-6.66Zm-5.73,4.23v-8.46c1.91,.47,3.34,2.18,3.34,4.23s-1.43,3.76-3.34,4.23Z"/></g></svg>