<svg width="1em" height="1em" role="presentation" id="GRADIENTS" xmlns="http://www.w3.org/2000/svg" xmlns:xlink="http://www.w3.org/1999/xlink" viewBox="0 0 48 48"><defs><style>.cls-1{fill:url(#New_Gradient_Swatch_2-10);}.cls-2{fill:url(#New_Gradient_Swatch_2);}.cls-3{fill:url(#New_Gradient_Swatch_2-9);}.cls-4{fill:url(#New_Gradient_Swatch_2-6);}.cls-5{fill:url(#New_Gradient_Swatch_2-5);}.cls-6{fill:url(#New_Gradient_Swatch_2-2);}.cls-7{fill:url(#New_Gradient_Swatch_2-4);}.cls-8{fill:url(#New_Gradient_Swatch_2-3);}.cls-9{fill:url(#New_Gradient_Swatch_2-8);}.cls-10{fill:url(#New_Gradient_Swatch_2-7);}</style><linearGradient id="New_Gradient_Swatch_2" x1="7.23" y1="13.02" x2="37.84" y2="34.45" gradientTransform="matrix(1, 0, 0, 1, 0, 0)" gradientUnits="userSpaceOnUse"><stop offset=".14" stop-color="#ff8045"/><stop offset=".16" stop-color="#f5905e"/><stop offset=".22" stop-color="#e4aa87"/><stop offset=".27" stop-color="#d7c0a9"/><stop offset=".33" stop-color="#ccd2c4"/><stop offset=".39" stop-color="#c4ded7"/><stop offset=".45" stop-color="#c0e5e2"/><stop offset=".51" stop-color="#bfe8e6"/><stop offset=".76" stop-color="#cdc4f5"/><stop offset="1" stop-color="#ffbd45"/></linearGradient><linearGradient id="New_Gradient_Swatch_2-2" x1="4.57" y1="17.75" x2="34.21" y2="38.51" xlink:href="#New_Gradient_Swatch_2"/><linearGradient id="New_Gradient_Swatch_2-3" x1="-6.62" y1="22.18" x2="28.23" y2="46.59" xlink:href="#New_Gradient_Swatch_2"/><linearGradient id="New_Gradient_Swatch_2-4" x1="17.18" y1="3.02" x2="46.43" y2="23.5" xlink:href="#New_Gradient_Swatch_2"/><linearGradient id="New_Gradient_Swatch_2-5" x1="9.44" y1="9.5" x2="41.41" y2="31.88" xlink:href="#New_Gradient_Swatch_2"/><linearGradient id="New_Gradient_Swatch_2-6" x1=".76" y1="17.18" x2="35.52" y2="41.52" xlink:href="#New_Gradient_Swatch_2"/><linearGradient id="New_Gradient_Swatch_2-7" x1="-6.6" y1="19.61" x2="32.82" y2="47.21" xlink:href="#New_Gradient_Swatch_2"/><linearGradient id="New_Gradient_Swatch_2-8" x1="6.27" y1="13.68" x2="38.24" y2="36.06" xlink:href="#New_Gradient_Swatch_2"/><linearGradient id="New_Gradient_Swatch_2-9" x1="12.16" y1="4.03" x2="46.92" y2="28.37" xlink:href="#New_Gradient_Swatch_2"/><linearGradient id="New_Gradient_Swatch_2-10" x1="14.85" y1="-1.66" x2="54.27" y2="25.94" xlink:href="#New_Gradient_Swatch_2"/></defs><g id="RX"><g><path class="cls-2" d="M31.07,15.48c-1.94-1.91-4.49-2.96-7.21-2.96-.05,0-.1,0-.15,0-5.58,.08-10.12,4.68-10.12,10.26,0,3.1,1.37,6,3.77,7.96,.77,.63,1.21,1.55,1.21,2.51v1.49c0,.66,.54,1.2,1.2,1.2s1.2-.54,1.2-1.2v-1.49c0-1.69-.76-3.28-2.09-4.36-1.84-1.51-2.9-3.73-2.89-6.1,0-4.28,3.48-7.81,7.76-7.87,2.12-.03,4.13,.78,5.64,2.27,1.51,1.49,2.35,3.48,2.35,5.61,0,2.39-1.07,4.62-2.92,6.12-1.31,1.06-2.07,2.64-2.07,4.34v1.49c0,.66,.54,1.2,1.2,1.2s1.2-.54,1.2-1.2v-1.49c0-.97,.43-1.87,1.18-2.48,2.42-1.96,3.81-4.87,3.81-7.98,0-2.77-1.09-5.37-3.06-7.31Z"/><path class="cls-6" d="M27.48,37.94h-2.41v-11.85l2.43-2.43c.47-.47,.47-1.23,0-1.69s-1.23-.47-1.69,0l-1.94,1.94-1.94-1.94c-.47-.47-1.23-.47-1.69,0-.47,.47-.47,1.23,0,1.69l2.43,2.43v11.85h-2.41c-.66,0-1.2,.54-1.2,1.2s.54,1.2,1.2,1.2h7.22c.66,0,1.2-.54,1.2-1.2s-.54-1.2-1.2-1.2Z"/><path class="cls-8" d="M25.55,42.33h-3.38c-.66,0-1.2,.54-1.2,1.2s.54,1.2,1.2,1.2h3.38c.66,0,1.2-.54,1.2-1.2s-.54-1.2-1.2-1.2Z"/><path class="cls-7" d="M23.86,10.48c.66,0,1.2-.54,1.2-1.2v-3.15c0-.66-.54-1.2-1.2-1.2s-1.2,.54-1.2,1.2v3.15c0,.66,.54,1.2,1.2,1.2Z"/><path class="cls-5" d="M13.46,14.08c.23,.23,.54,.35,.85,.35s.61-.12,.85-.35c.47-.47,.47-1.23,0-1.69l-2.23-2.23c-.47-.47-1.23-.47-1.69,0-.47,.47-.47,1.23,0,1.69l2.23,2.23Z"/><path class="cls-4" d="M11.55,22.8c0-.66-.54-1.2-1.2-1.2h-3.15c-.66,0-1.2,.54-1.2,1.2s.54,1.2,1.2,1.2h3.15c.66,0,1.2-.54,1.2-1.2Z"/><path class="cls-10" d="M13.46,31.51l-2.23,2.23c-.47,.47-.47,1.23,0,1.69,.23,.23,.54,.35,.85,.35s.61-.12,.85-.35l2.23-2.23c.47-.47,.47-1.23,0-1.69s-1.23-.47-1.69,0Z"/><path class="cls-9" d="M34.27,31.51c-.47-.47-1.23-.47-1.69,0-.47,.47-.47,1.23,0,1.69l2.23,2.23c.23,.23,.54,.35,.85,.35s.61-.12,.85-.35c.47-.47,.47-1.23,0-1.69l-2.23-2.23Z"/><path class="cls-3" d="M40.53,21.6h-3.15c-.66,0-1.2,.54-1.2,1.2s.54,1.2,1.2,1.2h3.15c.66,0,1.2-.54,1.2-1.2s-.54-1.2-1.2-1.2Z"/><path class="cls-1" d="M33.42,14.44c.31,0,.61-.12,.85-.35l2.23-2.23c.47-.47,.47-1.23,0-1.69-.47-.47-1.23-.47-1.69,0l-2.23,2.23c-.47,.47-.47,1.23,0,1.69,.23,.23,.54,.35,.85,.35Z"/></g></g></svg>