<svg width="1em" height="1em" role="presentation" id="GRADIENTS" xmlns="http://www.w3.org/2000/svg" xmlns:xlink="http://www.w3.org/1999/xlink" viewBox="0 0 48 48"><defs><style>.cls-1{fill:url(#BRAND_Gradient_-35_);}</style><linearGradient id="BRAND_Gradient_-35_" x1="3.13" y1="10.3" x2="43.07" y2="38.27" gradientTransform="matrix(1, 0, 0, 1, 0, 0)" gradientUnits="userSpaceOnUse"><stop offset=".14" stop-color="#ff8045"/><stop offset=".16" stop-color="#f5905e"/><stop offset=".22" stop-color="#e4aa87"/><stop offset=".27" stop-color="#d7c0a9"/><stop offset=".33" stop-color="#ccd2c4"/><stop offset=".39" stop-color="#c4ded7"/><stop offset=".45" stop-color="#c0e5e2"/><stop offset=".51" stop-color="#bfe8e6"/><stop offset=".76" stop-color="#cdc4f5"/><stop offset="1" stop-color="#ffbd45"/></linearGradient></defs><g id="RX"><path class="cls-1" d="M7.36,35.7V18.9s.03-.07,.07-.07h29.32s.07,.03,.07,.07v2.37c0,.74,.6,1.33,1.33,1.33h.01c.73,0,1.32-.59,1.32-1.32V11.45c0-1.8-1.46-3.26-3.26-3.26h-3.14s-.07-.03-.07-.07v-.65c0-.74-.49-1.43-1.22-1.59-1.02-.22-1.93,.55-1.93,1.54v.7s-.03,.07-.07,.07H14.39s-.07-.03-.07-.07v-.65c0-.74-.49-1.43-1.22-1.59-1.02-.22-1.93,.55-1.93,1.54v.7s-.03,.07-.07,.07h-3.14c-1.8,0-3.27,1.46-3.27,3.27v24.24c0,1.8,1.46,3.26,3.26,3.26H24.22c.71,0,1.28-.57,1.28-1.28h0c0-.77-.62-1.39-1.39-1.39H7.95c-.33,0-.6-.27-.6-.6Zm0-24.25c0-.33,.27-.6,.6-.6h3.14s.07,.03,.07,.07v.86c0,.74,.49,1.43,1.22,1.59,1.02,.22,1.93-.55,1.93-1.54v-.91s.03-.07,.07-.07h15.41s.07,.03,.07,.07v.86c0,.74,.49,1.43,1.22,1.59,1.02,.22,1.93-.55,1.93-1.54v-.91s.03-.07,.07-.07h3.14c.33,0,.59,.27,.59,.59v4.64s-.03,.07-.07,.07H7.43s-.07-.03-.07-.07v-4.63Zm31.78,13.68c-.49-.22-1.01-.4-1.56-.53-.68-.16-1.38-.24-2.08-.24-4.95,0-8.99,4.03-8.99,8.99,0,1.33,.29,2.62,.85,3.81,.26,.55,.57,1.07,.93,1.55,1.69,2.27,4.38,3.62,7.21,3.62,4.96,0,8.99-4.03,8.99-8.99,0-3.55-2.1-6.77-5.35-8.22Zm2.68,8.22c0,3.48-2.83,6.32-6.32,6.32-1.64,0-3.19-.63-4.37-1.76-.41-.39-.76-.84-1.05-1.32-.59-.98-.9-2.1-.9-3.24,0-3.48,2.83-6.32,6.32-6.32,.6,0,1.2,.08,1.77,.25,.46,.13,.9,.32,1.32,.55,1.99,1.12,3.23,3.23,3.23,5.51Zm-5.03-.55l2.85,2.85c.52,.52,.52,1.37,0,1.89-.25,.25-.59,.39-.94,.39-.2,0-.39-.04-.57-.13-.13-.06-.26-.15-.37-.26l-3.26-3.26c-.25-.24-.39-.59-.39-.94v-3.77c0-.83,.76-1.48,1.61-1.31,.63,.13,1.05,.72,1.05,1.36v3.14s0,.04,.02,.05Z"/></g></svg>